<svg xmlns="http://www.w3.org/2000/svg" viewBox="0 0 1232.89 212.02"><defs><style>.cls-1{fill:red;}</style></defs><title>Asset 8</title><g id="Layer_2" data-name="Layer 2"><g id="Layer_1-2" data-name="Layer 1"><path class="cls-1" d="M653,211.86c-10,0-16.72-2.27-19.84-6.76s-2.94-11.48.45-20.88L700.23,0h27.36l-67,185.3h29.31l-9.6,26.56H653Z"/><path class="cls-1" d="M301.33,185.3h-94.8l34.92-96.42H336l9.55-26.55H251.36c-19.35,0-31.94,9.59-38.51,29.39L179.59,184c-3.89,9.94-4.32,17.25-1.29,21.74,2.76,4.08,8.67,6.15,17.56,6.15h95.92Z"/><path class="cls-1" d="M444,185.3H349.2l34.92-96.42h94.54l9.55-26.55H394c-19.35,0-31.94,9.59-38.51,29.39L322.26,184c-3.89,9.94-4.33,17.25-1.29,21.74,2.76,4.08,8.67,6.15,17.56,6.15h95.92Z"/><path class="cls-1" d="M647.71,68.65c-2.92-4.2-9-6.32-18.11-6.32h-93c-19.35,0-31.94,9.59-38.51,29.39L464.88,184c-3.89,9.95-4.32,17.26-1.29,21.75,2.76,4.08,8.67,6.15,17.56,6.15H603.2l9.6-26.56H490.56l34.71-96.42h95l-7.2,20A414.22,414.22,0,0,1,533,140L524,164.76A434.61,434.61,0,0,0,635.9,121.19l11.17-30.91C650.63,80.43,650.84,73.16,647.71,68.65Z"/><path class="cls-1" d="M893.71,68.65c-2.92-4.2-9-6.32-18.11-6.32h-93c-19.35,0-31.94,9.59-38.51,29.39L710.88,184c-3.89,9.95-4.32,17.26-1.29,21.75,2.76,4.08,8.67,6.15,17.56,6.15H849.2l9.6-26.56H736.56l34.71-96.42h95l-7.2,20A414.22,414.22,0,0,1,779,140L770,164.76A434.61,434.61,0,0,0,881.9,121.19l11.17-30.91C896.63,80.43,896.84,73.16,893.71,68.65Z"/><path class="cls-1" d="M1062.21,68.65c-2.92-4.2-9-6.32-18.11-6.32H951.15c-19.35,0-31.94,9.59-38.51,29.39L879.38,184c-3.89,9.95-4.32,17.26-1.29,21.75,2.76,4.08,8.67,6.15,17.56,6.15H1017.7l9.6-26.56H905.06l34.71-96.42h95l-7.2,20A414.22,414.22,0,0,1,947.45,140l-8.94,24.81a434.61,434.61,0,0,0,111.89-43.57l11.17-30.91C1065.13,80.43,1065.34,73.16,1062.21,68.65Z"/><path class="cls-1" d="M1230.7,68.65c-2.92-4.2-9-6.32-18.12-6.32h-92.95c-19.35,0-31.94,9.59-38.5,29.39l-43.37,120.13h26.11l44.39-123h95l-7.22,20a395.76,395.76,0,0,1-79.87,31l-8.94,24.81A440.6,440.6,0,0,0,1161.56,148L1176,211.66l26.64.25-15.76-74.52q16.43-7.48,32-16.2l11.16-30.91C1233.61,80.43,1233.83,73.16,1230.7,68.65Z"/><path class="cls-1" d="M193.68,68.67c-2.93-4.21-9-6.34-18.17-6.34H82.28c-19.41,0-32,9.62-38.63,29.49L0,212H27.45l44.68-123h93.79L158.7,109a453.82,453.82,0,0,1-77.37,31l-9,24.81a476.57,476.57,0,0,0,75.76-26.64L121.36,212h27.41L193,90.36C196.6,80.49,196.82,73.19,193.68,68.67Z"/></g></g></svg>